solid BuddyBot2_LaserHolder
facet normal 4.7201866534425456e-17 1.0 3.435631679517418e-17
  outer loop
    vertex 1.9999999999999998 2.0000000000000018 12.5
    vertex 13.499999999999998 2.000000000000001 1.9999999999999998
    vertex 1.9999999999999998 2.0000000000000018 1.9999999999999998
  endloop
endfacet
facet normal 4.7201866534425456e-17 1.0 3.435631679517418e-17
  outer loop
    vertex 13.499999999999998 2.000000000000001 1.9999999999999998
    vertex 1.9999999999999998 2.0000000000000018 12.5
    vertex 24.5 2.0000000000000018 1.9999999999999998
  endloop
endfacet
facet normal 4.7201866534425456e-17 1.0 3.435631679517418e-17
  outer loop
    vertex 24.5 2.0000000000000018 1.9999999999999998
    vertex 1.9999999999999998 2.0000000000000018 12.5
    vertex 36.0 1.9999999999999998 1.9999999999999998
  endloop
endfacet
facet normal 4.7201866534425456e-17 1.0 3.435631679517418e-17
  outer loop
    vertex 36.0 1.9999999999999998 1.9999999999999998
    vertex 1.9999999999999998 2.0000000000000018 12.5
    vertex 36.0 1.9999999999999998 12.5
  endloop
endfacet
facet normal 4.7201866534425456e-17 1.0 3.435631679517418e-17
  outer loop
    vertex 13.499999999999998 2.000000000000001 1.9999999999999998
    vertex 24.5 2.0000000000000018 0.0
    vertex 13.499999999999998 2.000000000000001 0.0
  endloop
endfacet
facet normal 4.7201866534425456e-17 1.0 3.435631679517418e-17
  outer loop
    vertex 24.5 2.0000000000000018 0.0
    vertex 13.499999999999998 2.000000000000001 1.9999999999999998
    vertex 24.5 2.0000000000000018 1.9999999999999998
  endloop
endfacet
facet normal 0.0 0.0 -1.0
  outer loop
    vertex 0.0 30.0 0.0
    vertex 2.000000000000001 22.75 0.0
    vertex 0.0 0.0 0.0
  endloop
endfacet
facet normal 0.0 0.0 -1.0
  outer loop
    vertex 2.000000000000001 22.75 0.0
    vertex 0.0 30.0 0.0
    vertex 38.00000000000001 30.0 0.0
  endloop
endfacet
facet normal 0.0 0.0 -1.0
  outer loop
    vertex 2.000000000000001 22.75 0.0
    vertex 38.00000000000001 30.0 0.0
    vertex 3.5500000000000007 22.75 0.0
  endloop
endfacet
facet normal 0.0 0.0 -1.0
  outer loop
    vertex 3.5500000000000007 22.75 0.0
    vertex 38.00000000000001 30.0 0.0
    vertex 13.499999999999998 15.0 0.0
  endloop
endfacet
facet normal 0.0 0.0 -1.0
  outer loop
    vertex 3.5500000000000007 22.75 0.0
    vertex 13.499999999999998 15.0 0.0
    vertex 3.5500000000000007 7.250000000000001 0.0
  endloop
endfacet
facet normal 0.0 0.0 -1.0
  outer loop
    vertex 13.499999999999998 15.0 0.0
    vertex 38.00000000000001 30.0 0.0
    vertex 24.5 15.0 0.0
  endloop
endfacet
facet normal 0.0 0.0 -1.0
  outer loop
    vertex 24.5 15.0 0.0
    vertex 38.00000000000001 30.0 0.0
    vertex 34.45 22.75 0.0
  endloop
endfacet
facet normal 0.0 0.0 -1.0
  outer loop
    vertex 24.5 15.0 0.0
    vertex 34.45 22.75 0.0
    vertex 24.5 2.0000000000000018 0.0
  endloop
endfacet
facet normal 0.0 0.0 -1.0
  outer loop
    vertex 34.45 22.75 0.0
    vertex 38.00000000000001 30.0 0.0
    vertex 36.0 22.75 0.0
  endloop
endfacet
facet normal 0.0 0.0 -1.0
  outer loop
    vertex 36.0 22.75 0.0
    vertex 38.00000000000001 30.0 0.0
    vertex 36.0 7.250000000000001 0.0
  endloop
endfacet
facet normal 0.0 0.0 -1.0
  outer loop
    vertex 0.0 0.0 0.0
    vertex 13.499999999999998 2.000000000000001 0.0
    vertex 38.00000000000001 0.0 0.0
  endloop
endfacet
facet normal 0.0 0.0 -1.0
  outer loop
    vertex 13.499999999999998 2.000000000000001 0.0
    vertex 0.0 0.0 0.0
    vertex 2.000000000000001 7.250000000000001 0.0
  endloop
endfacet
facet normal 0.0 0.0 -1.0
  outer loop
    vertex 2.000000000000001 7.250000000000001 0.0
    vertex 0.0 0.0 0.0
    vertex 2.000000000000001 22.75 0.0
  endloop
endfacet
facet normal 0.0 0.0 -1.0
  outer loop
    vertex 13.499999999999998 2.000000000000001 0.0
    vertex 2.000000000000001 7.250000000000001 0.0
    vertex 3.5500000000000007 7.250000000000001 0.0
  endloop
endfacet
facet normal 0.0 0.0 -1.0
  outer loop
    vertex 13.499999999999998 2.000000000000001 0.0
    vertex 3.5500000000000007 7.250000000000001 0.0
    vertex 13.499999999999998 15.0 0.0
  endloop
endfacet
facet normal 0.0 0.0 -1.0
  outer loop
    vertex 38.00000000000001 0.0 0.0
    vertex 13.499999999999998 2.000000000000001 0.0
    vertex 24.5 2.0000000000000018 0.0
  endloop
endfacet
facet normal 0.0 0.0 -1.0
  outer loop
    vertex 38.00000000000001 0.0 0.0
    vertex 24.5 2.0000000000000018 0.0
    vertex 34.45 7.250000000000001 0.0
  endloop
endfacet
facet normal 0.0 0.0 -1.0
  outer loop
    vertex 34.45 7.250000000000001 0.0
    vertex 24.5 2.0000000000000018 0.0
    vertex 34.45 22.75 0.0
  endloop
endfacet
facet normal 0.0 0.0 -1.0
  outer loop
    vertex 38.00000000000001 0.0 0.0
    vertex 34.45 7.250000000000001 0.0
    vertex 36.0 7.250000000000001 0.0
  endloop
endfacet
facet normal 0.0 0.0 -1.0
  outer loop
    vertex 38.00000000000001 0.0 0.0
    vertex 36.0 7.250000000000001 0.0
    vertex 38.00000000000001 30.0 0.0
  endloop
endfacet
facet normal 1.0 -0.0 -0.0
  outer loop
    vertex 38.00000000000001 30.0 0.0
    vertex 38.00000000000001 0.0 12.5
    vertex 38.00000000000001 0.0 0.0
  endloop
endfacet
facet normal 1.0 -0.0 -0.0
  outer loop
    vertex 38.00000000000001 0.0 12.5
    vertex 38.00000000000001 30.0 0.0
    vertex 38.00000000000001 30.0 12.5
  endloop
endfacet
facet normal 3.716409501760399e-18 -1.0 7.049916206369746e-18
  outer loop
    vertex 38.00000000000001 0.0 12.5
    vertex 0.0 0.0 0.0
    vertex 38.00000000000001 0.0 0.0
  endloop
endfacet
facet normal 3.716409501760399e-18 -1.0 7.049916206369746e-18
  outer loop
    vertex 0.0 0.0 0.0
    vertex 38.00000000000001 0.0 12.5
    vertex 0.0 0.0 12.5
  endloop
endfacet
facet normal -1.0 0.0 0.0
  outer loop
    vertex 0.0 30.0 12.5
    vertex 0.0 0.0 0.0
    vertex 0.0 0.0 12.5
  endloop
endfacet
facet normal -1.0 0.0 0.0
  outer loop
    vertex 0.0 0.0 0.0
    vertex 0.0 30.0 12.5
    vertex 0.0 30.0 0.0
  endloop
endfacet
facet normal -0.0 1.0 -0.0
  outer loop
    vertex 13.5 30.0 14.499999999999998
    vertex 24.500000000000004 30.0 12.5
    vertex 13.5 30.0 12.5
  endloop
endfacet
facet normal -0.0 1.0 -0.0
  outer loop
    vertex 24.500000000000004 30.0 12.5
    vertex 13.5 30.0 14.499999999999998
    vertex 24.500000000000004 30.0 14.499999999999998
  endloop
endfacet
facet normal -0.0 1.0 -0.0
  outer loop
    vertex 0.0 30.0 12.5
    vertex 38.00000000000001 30.0 0.0
    vertex 0.0 30.0 0.0
  endloop
endfacet
facet normal -0.0 1.0 -0.0
  outer loop
    vertex 38.00000000000001 30.0 0.0
    vertex 0.0 30.0 12.5
    vertex 38.00000000000001 30.0 12.5
  endloop
endfacet
facet normal -0.0 1.0 -0.0
  outer loop
    vertex 38.00000000000001 30.0 12.5
    vertex 0.0 30.0 12.5
    vertex 13.5 30.0 12.5
  endloop
endfacet
facet normal -0.0 1.0 -0.0
  outer loop
    vertex 38.00000000000001 30.0 12.5
    vertex 13.5 30.0 12.5
    vertex 24.500000000000004 30.0 12.5
  endloop
endfacet
facet normal 0.0 -1.0 0.0
  outer loop
    vertex 36.0 22.75 9.999999999999998
    vertex 34.45 22.75 0.0
    vertex 36.0 22.75 0.0
  endloop
endfacet
facet normal 0.0 -1.0 0.0
  outer loop
    vertex 34.45 22.75 0.0
    vertex 36.0 22.75 9.999999999999998
    vertex 34.45 22.75 9.999999999999998
  endloop
endfacet
facet normal 1.0 -0.0 -0.0
  outer loop
    vertex 34.45 22.75 0.0
    vertex 34.45 7.250000000000001 9.999999999999998
    vertex 34.45 7.250000000000001 0.0
  endloop
endfacet
facet normal 1.0 -0.0 -0.0
  outer loop
    vertex 34.45 7.250000000000001 9.999999999999998
    vertex 34.45 22.75 0.0
    vertex 34.45 22.75 9.999999999999998
  endloop
endfacet
facet normal -0.0 1.0 -0.0
  outer loop
    vertex 34.45 7.250000000000001 9.999999999999998
    vertex 36.0 7.250000000000001 0.0
    vertex 34.45 7.250000000000001 0.0
  endloop
endfacet
facet normal -0.0 1.0 -0.0
  outer loop
    vertex 36.0 7.250000000000001 0.0
    vertex 34.45 7.250000000000001 9.999999999999998
    vertex 36.0 7.250000000000001 9.999999999999998
  endloop
endfacet
facet normal -1.0 0.0 0.0
  outer loop
    vertex 3.5500000000000007 22.75 10.000000000000002
    vertex 3.5500000000000007 7.250000000000001 0.0
    vertex 3.5500000000000007 7.250000000000001 10.000000000000002
  endloop
endfacet
facet normal -1.0 0.0 0.0
  outer loop
    vertex 3.5500000000000007 7.250000000000001 0.0
    vertex 3.5500000000000007 22.75 10.000000000000002
    vertex 3.5500000000000007 22.75 0.0
  endloop
endfacet
facet normal 0.0 -1.0 0.0
  outer loop
    vertex 3.5500000000000007 22.75 10.000000000000002
    vertex 2.000000000000001 22.75 0.0
    vertex 3.5500000000000007 22.75 0.0
  endloop
endfacet
facet normal 0.0 -1.0 0.0
  outer loop
    vertex 2.000000000000001 22.75 0.0
    vertex 3.5500000000000007 22.75 10.000000000000002
    vertex 2.000000000000001 22.75 10.000000000000002
  endloop
endfacet
facet normal -0.0 1.0 -0.0
  outer loop
    vertex 2.000000000000001 7.250000000000001 10.000000000000002
    vertex 3.5500000000000007 7.250000000000001 0.0
    vertex 2.000000000000001 7.250000000000001 0.0
  endloop
endfacet
facet normal -0.0 1.0 -0.0
  outer loop
    vertex 3.5500000000000007 7.250000000000001 0.0
    vertex 2.000000000000001 7.250000000000001 10.000000000000002
    vertex 3.5500000000000007 7.250000000000001 10.000000000000002
  endloop
endfacet
facet normal 0.0 -1.0 0.0
  outer loop
    vertex 6.0 5.250000000000001 10.000000000000002
    vertex 2.000000000000001 5.250000000000001 1.9999999999999998
    vertex 6.0 5.250000000000001 1.9999999999999998
  endloop
endfacet
facet normal 0.0 -1.0 0.0
  outer loop
    vertex 2.000000000000001 5.250000000000001 1.9999999999999998
    vertex 6.0 5.250000000000001 10.000000000000002
    vertex 2.000000000000001 5.250000000000001 10.000000000000002
  endloop
endfacet
facet normal 1.0 -0.0 0.0
  outer loop
    vertex 6.0 24.75 1.9999999999999998
    vertex 6.0 5.250000000000001 10.000000000000002
    vertex 6.0 5.250000000000001 1.9999999999999998
  endloop
endfacet
facet normal 1.0 -0.0 0.0
  outer loop
    vertex 6.0 5.250000000000001 10.000000000000002
    vertex 6.0 24.75 1.9999999999999998
    vertex 6.0 24.75 10.000000000000002
  endloop
endfacet
facet normal -0.0 1.0 -0.0
  outer loop
    vertex 2.000000000000001 24.75 10.000000000000002
    vertex 6.0 24.75 1.9999999999999998
    vertex 2.000000000000001 24.75 1.9999999999999998
  endloop
endfacet
facet normal -0.0 1.0 -0.0
  outer loop
    vertex 6.0 24.75 1.9999999999999998
    vertex 2.000000000000001 24.75 10.000000000000002
    vertex 6.0 24.75 10.000000000000002
  endloop
endfacet
facet normal 0.0 0.0 1.0
  outer loop
    vertex 6.0 5.250000000000001 10.000000000000002
    vertex 2.000000000000001 7.250000000000001 10.000000000000002
    vertex 2.000000000000001 5.250000000000001 10.000000000000002
  endloop
endfacet
facet normal 0.0 0.0 1.0
  outer loop
    vertex 2.000000000000001 7.250000000000001 10.000000000000002
    vertex 6.0 5.250000000000001 10.000000000000002
    vertex 3.5500000000000007 7.250000000000001 10.000000000000002
  endloop
endfacet
facet normal 0.0 0.0 1.0
  outer loop
    vertex 3.5500000000000007 7.250000000000001 10.000000000000002
    vertex 6.0 5.250000000000001 10.000000000000002
    vertex 3.5500000000000007 22.75 10.000000000000002
  endloop
endfacet
facet normal 0.0 0.0 1.0
  outer loop
    vertex 3.5500000000000007 22.75 10.000000000000002
    vertex 2.000000000000001 24.75 10.000000000000002
    vertex 2.000000000000001 22.75 10.000000000000002
  endloop
endfacet
facet normal 0.0 0.0 1.0
  outer loop
    vertex 2.000000000000001 24.75 10.000000000000002
    vertex 3.5500000000000007 22.75 10.000000000000002
    vertex 6.0 24.75 10.000000000000002
  endloop
endfacet
facet normal 0.0 0.0 1.0
  outer loop
    vertex 6.0 24.75 10.000000000000002
    vertex 3.5500000000000007 22.75 10.000000000000002
    vertex 6.0 5.250000000000001 10.000000000000002
  endloop
endfacet
facet normal 1.0 -2.1755826799152292e-18 9.140006930139703e-18
  outer loop
    vertex 2.000000000000001 22.75 0.0
    vertex 2.000000000000001 7.250000000000001 10.000000000000002
    vertex 2.000000000000001 7.250000000000001 0.0
  endloop
endfacet
facet normal 1.0 -2.1755826799152292e-18 9.140006930139703e-18
  outer loop
    vertex 1.9999999999999998 28.0 1.9999999999999998
    vertex 2.000000000000001 24.75 10.000000000000002
    vertex 2.000000000000001 24.75 1.9999999999999998
  endloop
endfacet
facet normal 1.0 -2.1755826799152292e-18 9.140006930139703e-18
  outer loop
    vertex 2.000000000000001 5.250000000000001 1.9999999999999998
    vertex 1.9999999999999998 2.0000000000000018 12.5
    vertex 1.9999999999999998 2.0000000000000018 1.9999999999999998
  endloop
endfacet
facet normal 1.0 -2.1755826799152292e-18 9.140006930139703e-18
  outer loop
    vertex 1.9999999999999998 2.0000000000000018 12.5
    vertex 2.000000000000001 5.250000000000001 1.9999999999999998
    vertex 2.000000000000001 5.250000000000001 10.000000000000002
  endloop
endfacet
facet normal 1.0 -2.1755826799152292e-18 9.140006930139703e-18
  outer loop
    vertex 1.9999999999999998 2.0000000000000018 12.5
    vertex 2.000000000000001 5.250000000000001 10.000000000000002
    vertex 1.9999999999999998 28.0 12.5
  endloop
endfacet
facet normal 1.0 -2.1755826799152292e-18 9.140006930139703e-18
  outer loop
    vertex 1.9999999999999998 28.0 12.5
    vertex 2.000000000000001 5.250000000000001 10.000000000000002
    vertex 2.000000000000001 7.250000000000001 10.000000000000002
  endloop
endfacet
facet normal 1.0 -2.1755826799152292e-18 9.140006930139703e-18
  outer loop
    vertex 1.9999999999999998 28.0 12.5
    vertex 2.000000000000001 7.250000000000001 10.000000000000002
    vertex 2.000000000000001 22.75 10.000000000000002
  endloop
endfacet
facet normal 1.0 -2.1755826799152292e-18 9.140006930139703e-18
  outer loop
    vertex 2.000000000000001 22.75 10.000000000000002
    vertex 2.000000000000001 7.250000000000001 10.000000000000002
    vertex 2.000000000000001 22.75 0.0
  endloop
endfacet
facet normal 1.0 -2.1755826799152292e-18 9.140006930139703e-18
  outer loop
    vertex 1.9999999999999998 28.0 12.5
    vertex 2.000000000000001 22.75 10.000000000000002
    vertex 2.000000000000001 24.75 10.000000000000002
  endloop
endfacet
facet normal 1.0 -2.1755826799152292e-18 9.140006930139703e-18
  outer loop
    vertex 1.9999999999999998 28.0 12.5
    vertex 2.000000000000001 24.75 10.000000000000002
    vertex 1.9999999999999998 28.0 1.9999999999999998
  endloop
endfacet
facet normal -0.0 1.0 -0.0
  outer loop
    vertex 32.0 24.75 9.999999999999998
    vertex 36.0 24.75 1.9999999999999998
    vertex 32.0 24.75 1.9999999999999998
  endloop
endfacet
facet normal -0.0 1.0 -0.0
  outer loop
    vertex 36.0 24.75 1.9999999999999998
    vertex 32.0 24.75 9.999999999999998
    vertex 36.0 24.75 9.999999999999998
  endloop
endfacet
facet normal -1.0 -0.0 -0.0
  outer loop
    vertex 32.0 24.75 9.999999999999998
    vertex 32.0 5.250000000000001 1.9999999999999998
    vertex 32.0 5.250000000000001 9.999999999999998
  endloop
endfacet
facet normal -1.0 -0.0 -0.0
  outer loop
    vertex 32.0 5.250000000000001 1.9999999999999998
    vertex 32.0 24.75 9.999999999999998
    vertex 32.0 24.75 1.9999999999999998
  endloop
endfacet
facet normal 0.0 -1.0 0.0
  outer loop
    vertex 36.0 5.250000000000001 9.999999999999998
    vertex 32.0 5.250000000000001 1.9999999999999998
    vertex 36.0 5.250000000000001 1.9999999999999998
  endloop
endfacet
facet normal 0.0 -1.0 0.0
  outer loop
    vertex 32.0 5.250000000000001 1.9999999999999998
    vertex 36.0 5.250000000000001 9.999999999999998
    vertex 32.0 5.250000000000001 9.999999999999998
  endloop
endfacet
facet normal 0.0 0.0 1.0
  outer loop
    vertex 32.0 5.250000000000001 9.999999999999998
    vertex 34.45 7.250000000000001 9.999999999999998
    vertex 32.0 24.75 9.999999999999998
  endloop
endfacet
facet normal 0.0 0.0 1.0
  outer loop
    vertex 34.45 7.250000000000001 9.999999999999998
    vertex 32.0 5.250000000000001 9.999999999999998
    vertex 36.0 5.250000000000001 9.999999999999998
  endloop
endfacet
facet normal 0.0 0.0 1.0
  outer loop
    vertex 34.45 7.250000000000001 9.999999999999998
    vertex 36.0 5.250000000000001 9.999999999999998
    vertex 36.0 7.250000000000001 9.999999999999998
  endloop
endfacet
facet normal 0.0 0.0 1.0
  outer loop
    vertex 32.0 24.75 9.999999999999998
    vertex 34.45 22.75 9.999999999999998
    vertex 36.0 24.75 9.999999999999998
  endloop
endfacet
facet normal 0.0 0.0 1.0
  outer loop
    vertex 34.45 22.75 9.999999999999998
    vertex 32.0 24.75 9.999999999999998
    vertex 34.45 7.250000000000001 9.999999999999998
  endloop
endfacet
facet normal 0.0 0.0 1.0
  outer loop
    vertex 36.0 24.75 9.999999999999998
    vertex 34.45 22.75 9.999999999999998
    vertex 36.0 22.75 9.999999999999998
  endloop
endfacet
facet normal -1.0 0.0 0.0
  outer loop
    vertex 36.0 1.9999999999999998 12.5
    vertex 36.0 5.250000000000001 9.999999999999998
    vertex 36.0 1.9999999999999998 1.9999999999999998
  endloop
endfacet
facet normal -1.0 0.0 0.0
  outer loop
    vertex 36.0 5.250000000000001 9.999999999999998
    vertex 36.0 1.9999999999999998 12.5
    vertex 36.0 28.0 12.5
  endloop
endfacet
facet normal -1.0 0.0 0.0
  outer loop
    vertex 36.0 5.250000000000001 9.999999999999998
    vertex 36.0 28.0 12.5
    vertex 36.0 7.250000000000001 9.999999999999998
  endloop
endfacet
facet normal -1.0 0.0 0.0
  outer loop
    vertex 36.0 7.250000000000001 9.999999999999998
    vertex 36.0 28.0 12.5
    vertex 36.0 22.75 9.999999999999998
  endloop
endfacet
facet normal -1.0 0.0 0.0
  outer loop
    vertex 36.0 7.250000000000001 9.999999999999998
    vertex 36.0 22.75 9.999999999999998
    vertex 36.0 7.250000000000001 0.0
  endloop
endfacet
facet normal -1.0 0.0 0.0
  outer loop
    vertex 36.0 22.75 9.999999999999998
    vertex 36.0 28.0 12.5
    vertex 36.0 24.75 9.999999999999998
  endloop
endfacet
facet normal -1.0 0.0 0.0
  outer loop
    vertex 36.0 24.75 9.999999999999998
    vertex 36.0 28.0 12.5
    vertex 36.0 24.75 1.9999999999999998
  endloop
endfacet
facet normal -1.0 0.0 0.0
  outer loop
    vertex 36.0 24.75 1.9999999999999998
    vertex 36.0 28.0 12.5
    vertex 36.0 28.0 1.9999999999999998
  endloop
endfacet
facet normal -1.0 0.0 0.0
  outer loop
    vertex 36.0 22.75 0.0
    vertex 36.0 7.250000000000001 0.0
    vertex 36.0 22.75 9.999999999999998
  endloop
endfacet
facet normal -1.0 0.0 0.0
  outer loop
    vertex 36.0 5.250000000000001 1.9999999999999998
    vertex 36.0 1.9999999999999998 1.9999999999999998
    vertex 36.0 5.250000000000001 9.999999999999998
  endloop
endfacet
facet normal -0.0 -0.0 1.0
  outer loop
    vertex 24.5 15.0 1.9999999999999998
    vertex 13.499999999999998 28.0 1.9999999999999998
    vertex 13.499999999999998 15.0 1.9999999999999998
  endloop
endfacet
facet normal -0.0 -0.0 1.0
  outer loop
    vertex 13.499999999999998 28.0 1.9999999999999998
    vertex 24.5 15.0 1.9999999999999998
    vertex 24.5 28.0 1.9999999999999998
  endloop
endfacet
facet normal 0.0 0.0 1.0
  outer loop
    vertex 24.5 28.0 14.499999999999998
    vertex 13.5 30.0 14.499999999999998
    vertex 13.499999999999998 28.0 14.499999999999998
  endloop
endfacet
facet normal 0.0 0.0 1.0
  outer loop
    vertex 13.5 30.0 14.499999999999998
    vertex 24.5 28.0 14.499999999999998
    vertex 24.500000000000004 30.0 14.499999999999998
  endloop
endfacet
facet normal -1.0 1.4099832412739473e-15 -4.931302696592758e-32
  outer loop
    vertex 13.5 30.0 14.499999999999998
    vertex 13.499999999999998 28.0 12.5
    vertex 13.499999999999998 28.0 14.499999999999998
  endloop
endfacet
facet normal -1.0 1.4099832412739473e-15 -4.931302696592758e-32
  outer loop
    vertex 13.499999999999998 28.0 12.5
    vertex 13.5 30.0 14.499999999999998
    vertex 13.5 30.0 12.5
  endloop
endfacet
facet normal 1.0 -1.4099832412739473e-15 4.931302696592758e-32
  outer loop
    vertex 24.500000000000004 30.0 12.5
    vertex 24.5 28.0 14.499999999999998
    vertex 24.5 28.0 12.5
  endloop
endfacet
facet normal 1.0 -1.4099832412739473e-15 4.931302696592758e-32
  outer loop
    vertex 24.5 28.0 14.499999999999998
    vertex 24.500000000000004 30.0 12.5
    vertex 24.500000000000004 30.0 14.499999999999998
  endloop
endfacet
facet normal 0.0 -1.0 0.0
  outer loop
    vertex 36.0 28.0 12.5
    vertex 26.500000000000004 28.0 1.9999999999999998
    vertex 36.0 28.0 1.9999999999999998
  endloop
endfacet
facet normal 0.0 -1.0 0.0
  outer loop
    vertex 26.500000000000004 28.0 1.9999999999999998
    vertex 36.0 28.0 12.5
    vertex 26.500000000000004 28.0 12.5
  endloop
endfacet
facet normal 0.0 -1.0 0.0
  outer loop
    vertex 24.5 28.0 12.5
    vertex 13.499999999999998 28.0 1.9999999999999998
    vertex 24.5 28.0 1.9999999999999998
  endloop
endfacet
facet normal 0.0 -1.0 0.0
  outer loop
    vertex 13.499999999999998 28.0 1.9999999999999998
    vertex 24.5 28.0 12.5
    vertex 13.499999999999998 28.0 12.5
  endloop
endfacet
facet normal 0.0 -1.0 0.0
  outer loop
    vertex 13.499999999999998 28.0 12.5
    vertex 24.5 28.0 12.5
    vertex 24.5 28.0 14.499999999999998
  endloop
endfacet
facet normal 0.0 -1.0 0.0
  outer loop
    vertex 13.499999999999998 28.0 12.5
    vertex 24.5 28.0 14.499999999999998
    vertex 13.499999999999998 28.0 14.499999999999998
  endloop
endfacet
facet normal -1.0 0.0 0.0
  outer loop
    vertex 13.499999999999998 25.92 12.5
    vertex 13.499999999999998 28.0 1.9999999999999998
    vertex 13.499999999999998 15.0 1.9999999999999998
  endloop
endfacet
facet normal -1.0 0.0 0.0
  outer loop
    vertex 13.499999999999998 28.0 1.9999999999999998
    vertex 13.499999999999998 25.92 12.5
    vertex 13.499999999999998 28.0 12.5
  endloop
endfacet
facet normal 1.0 -0.0 -0.0
  outer loop
    vertex 24.5 28.0 1.9999999999999998
    vertex 24.5 25.92 12.5
    vertex 24.5 15.0 1.9999999999999998
  endloop
endfacet
facet normal 1.0 -0.0 -0.0
  outer loop
    vertex 24.5 25.92 12.5
    vertex 24.5 28.0 1.9999999999999998
    vertex 24.5 28.0 12.5
  endloop
endfacet
facet normal 3.419104755801139e-17 -0.6931087162517845 0.720833064901856
  outer loop
    vertex 24.5 15.0 1.9999999999999998
    vertex 13.499999999999998 25.92 12.5
    vertex 13.499999999999998 15.0 1.9999999999999998
  endloop
endfacet
facet normal 3.419104755801139e-17 -0.6931087162517845 0.720833064901856
  outer loop
    vertex 13.499999999999998 25.92 12.5
    vertex 24.5 15.0 1.9999999999999998
    vertex 13.499999999999998 28.0 14.499999999999998
  endloop
endfacet
facet normal 3.419104755801139e-17 -0.6931087162517845 0.720833064901856
  outer loop
    vertex 13.499999999999998 28.0 14.499999999999998
    vertex 24.5 15.0 1.9999999999999998
    vertex 24.5 28.0 14.499999999999998
  endloop
endfacet
facet normal 3.419104755801139e-17 -0.6931087162517845 0.720833064901856
  outer loop
    vertex 24.5 28.0 14.499999999999998
    vertex 24.5 15.0 1.9999999999999998
    vertex 24.5 25.92 12.5
  endloop
endfacet
facet normal 0.0 -1.0 0.0
  outer loop
    vertex 24.5 15.0 1.9999999999999998
    vertex 13.499999999999998 15.0 0.0
    vertex 24.5 15.0 0.0
  endloop
endfacet
facet normal 0.0 -1.0 0.0
  outer loop
    vertex 13.499999999999998 15.0 0.0
    vertex 24.5 15.0 1.9999999999999998
    vertex 13.499999999999998 15.0 1.9999999999999998
  endloop
endfacet
facet normal 1.0 -0.0 -0.0
  outer loop
    vertex 13.499999999999998 15.0 0.0
    vertex 13.499999999999998 2.000000000000001 1.9999999999999998
    vertex 13.499999999999998 2.000000000000001 0.0
  endloop
endfacet
facet normal 1.0 -0.0 -0.0
  outer loop
    vertex 13.499999999999998 2.000000000000001 1.9999999999999998
    vertex 13.499999999999998 15.0 0.0
    vertex 13.499999999999998 15.0 1.9999999999999998
  endloop
endfacet
facet normal -1.0 0.0 0.0
  outer loop
    vertex 24.5 15.0 1.9999999999999998
    vertex 24.5 2.0000000000000018 0.0
    vertex 24.5 2.0000000000000018 1.9999999999999998
  endloop
endfacet
facet normal -1.0 0.0 0.0
  outer loop
    vertex 24.5 2.0000000000000018 0.0
    vertex 24.5 15.0 1.9999999999999998
    vertex 24.5 15.0 0.0
  endloop
endfacet
facet normal -0.0 -0.0 1.0
  outer loop
    vertex 0.0 0.0 12.5
    vertex 1.9999999999999998 2.0000000000000018 12.5
    vertex 0.0 30.0 12.5
  endloop
endfacet
facet normal -0.0 -0.0 1.0
  outer loop
    vertex 1.9999999999999998 2.0000000000000018 12.5
    vertex 0.0 0.0 12.5
    vertex 38.00000000000001 0.0 12.5
  endloop
endfacet
facet normal -0.0 -0.0 1.0
  outer loop
    vertex 1.9999999999999998 2.0000000000000018 12.5
    vertex 38.00000000000001 0.0 12.5
    vertex 36.0 1.9999999999999998 12.5
  endloop
endfacet
facet normal -0.0 -0.0 1.0
  outer loop
    vertex 36.0 1.9999999999999998 12.5
    vertex 38.00000000000001 0.0 12.5
    vertex 36.0 28.0 12.5
  endloop
endfacet
facet normal -0.0 -0.0 1.0
  outer loop
    vertex 26.500000000000004 15.0 12.5
    vertex 24.5 25.92 12.5
    vertex 24.5 15.0 12.5
  endloop
endfacet
facet normal -0.0 -0.0 1.0
  outer loop
    vertex 24.5 25.92 12.5
    vertex 26.500000000000004 15.0 12.5
    vertex 24.5 28.0 12.5
  endloop
endfacet
facet normal -0.0 -0.0 1.0
  outer loop
    vertex 24.5 28.0 12.5
    vertex 26.500000000000004 15.0 12.5
    vertex 24.500000000000004 30.0 12.5
  endloop
endfacet
facet normal -0.0 -0.0 1.0
  outer loop
    vertex 24.500000000000004 30.0 12.5
    vertex 26.500000000000004 15.0 12.5
    vertex 26.500000000000004 28.0 12.5
  endloop
endfacet
facet normal -0.0 -0.0 1.0
  outer loop
    vertex 24.500000000000004 30.0 12.5
    vertex 26.500000000000004 28.0 12.5
    vertex 38.00000000000001 30.0 12.5
  endloop
endfacet
facet normal -0.0 -0.0 1.0
  outer loop
    vertex 38.00000000000001 30.0 12.5
    vertex 26.500000000000004 28.0 12.5
    vertex 36.0 28.0 12.5
  endloop
endfacet
facet normal -0.0 -0.0 1.0
  outer loop
    vertex 38.00000000000001 30.0 12.5
    vertex 36.0 28.0 12.5
    vertex 38.00000000000001 0.0 12.5
  endloop
endfacet
facet normal -0.0 -0.0 1.0
  outer loop
    vertex 13.499999999999998 15.0 12.5
    vertex 11.499999999999998 28.0 12.5
    vertex 11.499999999999998 15.0 12.5
  endloop
endfacet
facet normal -0.0 -0.0 1.0
  outer loop
    vertex 0.0 30.0 12.5
    vertex 1.9999999999999998 28.0 12.5
    vertex 13.5 30.0 12.5
  endloop
endfacet
facet normal -0.0 -0.0 1.0
  outer loop
    vertex 1.9999999999999998 28.0 12.5
    vertex 0.0 30.0 12.5
    vertex 1.9999999999999998 2.0000000000000018 12.5
  endloop
endfacet
facet normal -0.0 -0.0 1.0
  outer loop
    vertex 13.5 30.0 12.5
    vertex 1.9999999999999998 28.0 12.5
    vertex 11.499999999999998 28.0 12.5
  endloop
endfacet
facet normal -0.0 -0.0 1.0
  outer loop
    vertex 13.5 30.0 12.5
    vertex 11.499999999999998 28.0 12.5
    vertex 13.499999999999998 28.0 12.5
  endloop
endfacet
facet normal -0.0 -0.0 1.0
  outer loop
    vertex 13.499999999999998 28.0 12.5
    vertex 11.499999999999998 28.0 12.5
    vertex 13.499999999999998 15.0 12.5
  endloop
endfacet
facet normal -0.0 -0.0 1.0
  outer loop
    vertex 13.499999999999998 28.0 12.5
    vertex 13.499999999999998 15.0 12.5
    vertex 13.499999999999998 25.92 12.5
  endloop
endfacet
facet normal 0.0 -1.0 0.0
  outer loop
    vertex 11.499999999999998 28.0 12.5
    vertex 1.9999999999999998 28.0 1.9999999999999998
    vertex 11.499999999999998 28.0 1.9999999999999998
  endloop
endfacet
facet normal 0.0 -1.0 0.0
  outer loop
    vertex 1.9999999999999998 28.0 1.9999999999999998
    vertex 11.499999999999998 28.0 12.5
    vertex 1.9999999999999998 28.0 12.5
  endloop
endfacet
facet normal -0.0 -0.0 1.0
  outer loop
    vertex 13.499999999999998 2.000000000000001 1.9999999999999998
    vertex 2.000000000000001 5.250000000000001 1.9999999999999998
    vertex 1.9999999999999998 2.0000000000000018 1.9999999999999998
  endloop
endfacet
facet normal -0.0 -0.0 1.0
  outer loop
    vertex 2.000000000000001 5.250000000000001 1.9999999999999998
    vertex 13.499999999999998 2.000000000000001 1.9999999999999998
    vertex 6.0 5.250000000000001 1.9999999999999998
  endloop
endfacet
facet normal -0.0 -0.0 1.0
  outer loop
    vertex 6.0 5.250000000000001 1.9999999999999998
    vertex 13.499999999999998 2.000000000000001 1.9999999999999998
    vertex 6.0 24.75 1.9999999999999998
  endloop
endfacet
facet normal -0.0 -0.0 1.0
  outer loop
    vertex 6.0 24.75 1.9999999999999998
    vertex 13.499999999999998 2.000000000000001 1.9999999999999998
    vertex 11.499999999999998 15.0 1.9999999999999998
  endloop
endfacet
facet normal -0.0 -0.0 1.0
  outer loop
    vertex 11.499999999999998 15.0 1.9999999999999998
    vertex 13.499999999999998 2.000000000000001 1.9999999999999998
    vertex 13.499999999999998 15.0 1.9999999999999998
  endloop
endfacet
facet normal -0.0 -0.0 1.0
  outer loop
    vertex 2.000000000000001 24.75 1.9999999999999998
    vertex 11.499999999999998 28.0 1.9999999999999998
    vertex 1.9999999999999998 28.0 1.9999999999999998
  endloop
endfacet
facet normal -0.0 -0.0 1.0
  outer loop
    vertex 11.499999999999998 28.0 1.9999999999999998
    vertex 2.000000000000001 24.75 1.9999999999999998
    vertex 6.0 24.75 1.9999999999999998
  endloop
endfacet
facet normal -0.0 -0.0 1.0
  outer loop
    vertex 11.499999999999998 28.0 1.9999999999999998
    vertex 6.0 24.75 1.9999999999999998
    vertex 11.499999999999998 15.0 1.9999999999999998
  endloop
endfacet
facet normal -1.0 0.0 0.0
  outer loop
    vertex 11.499999999999998 28.0 12.5
    vertex 11.499999999999998 15.0 1.9999999999999998
    vertex 11.499999999999998 15.0 12.5
  endloop
endfacet
facet normal -1.0 0.0 0.0
  outer loop
    vertex 11.499999999999998 15.0 1.9999999999999998
    vertex 11.499999999999998 28.0 12.5
    vertex 11.499999999999998 28.0 1.9999999999999998
  endloop
endfacet
facet normal 0.0 -1.0 0.0
  outer loop
    vertex 13.499999999999998 15.0 12.5
    vertex 11.499999999999998 15.0 1.9999999999999998
    vertex 13.499999999999998 15.0 1.9999999999999998
  endloop
endfacet
facet normal 0.0 -1.0 0.0
  outer loop
    vertex 11.499999999999998 15.0 1.9999999999999998
    vertex 13.499999999999998 15.0 12.5
    vertex 11.499999999999998 15.0 12.5
  endloop
endfacet
facet normal -1.0 0.0 0.0
  outer loop
    vertex 13.499999999999998 28.0 12.5
    vertex 13.499999999999998 25.92 12.5
    vertex 13.499999999999998 28.0 14.499999999999998
  endloop
endfacet
facet normal 1.0 -0.0 -0.0
  outer loop
    vertex 13.499999999999998 25.92 12.5
    vertex 13.499999999999998 15.0 12.5
    vertex 13.499999999999998 15.0 1.9999999999999998
  endloop
endfacet
facet normal -0.0 -0.0 1.0
  outer loop
    vertex 24.5 2.0000000000000018 1.9999999999999998
    vertex 32.0 5.250000000000001 1.9999999999999998
    vertex 24.5 15.0 1.9999999999999998
  endloop
endfacet
facet normal -0.0 -0.0 1.0
  outer loop
    vertex 32.0 5.250000000000001 1.9999999999999998
    vertex 24.5 2.0000000000000018 1.9999999999999998
    vertex 36.0 1.9999999999999998 1.9999999999999998
  endloop
endfacet
facet normal -0.0 -0.0 1.0
  outer loop
    vertex 24.5 15.0 1.9999999999999998
    vertex 32.0 5.250000000000001 1.9999999999999998
    vertex 26.500000000000004 15.0 1.9999999999999998
  endloop
endfacet
facet normal -0.0 -0.0 1.0
  outer loop
    vertex 26.500000000000004 15.0 1.9999999999999998
    vertex 32.0 5.250000000000001 1.9999999999999998
    vertex 26.500000000000004 28.0 1.9999999999999998
  endloop
endfacet
facet normal -0.0 -0.0 1.0
  outer loop
    vertex 32.0 5.250000000000001 1.9999999999999998
    vertex 36.0 1.9999999999999998 1.9999999999999998
    vertex 36.0 5.250000000000001 1.9999999999999998
  endloop
endfacet
facet normal -0.0 -0.0 1.0
  outer loop
    vertex 26.500000000000004 28.0 1.9999999999999998
    vertex 32.0 24.75 1.9999999999999998
    vertex 36.0 28.0 1.9999999999999998
  endloop
endfacet
facet normal -0.0 -0.0 1.0
  outer loop
    vertex 32.0 24.75 1.9999999999999998
    vertex 26.500000000000004 28.0 1.9999999999999998
    vertex 32.0 5.250000000000001 1.9999999999999998
  endloop
endfacet
facet normal -0.0 -0.0 1.0
  outer loop
    vertex 36.0 28.0 1.9999999999999998
    vertex 32.0 24.75 1.9999999999999998
    vertex 36.0 24.75 1.9999999999999998
  endloop
endfacet
facet normal -1.0 0.0 0.0
  outer loop
    vertex 24.5 25.92 12.5
    vertex 24.5 15.0 1.9999999999999998
    vertex 24.5 15.0 12.5
  endloop
endfacet
facet normal 0.0 -1.0 0.0
  outer loop
    vertex 26.500000000000004 15.0 12.5
    vertex 24.5 15.0 1.9999999999999998
    vertex 26.500000000000004 15.0 1.9999999999999998
  endloop
endfacet
facet normal 0.0 -1.0 0.0
  outer loop
    vertex 24.5 15.0 1.9999999999999998
    vertex 26.500000000000004 15.0 12.5
    vertex 24.5 15.0 12.5
  endloop
endfacet
facet normal 1.0 -0.0 -0.0
  outer loop
    vertex 26.500000000000004 28.0 1.9999999999999998
    vertex 26.500000000000004 15.0 12.5
    vertex 26.500000000000004 15.0 1.9999999999999998
  endloop
endfacet
facet normal 1.0 -0.0 -0.0
  outer loop
    vertex 26.500000000000004 15.0 12.5
    vertex 26.500000000000004 28.0 1.9999999999999998
    vertex 26.500000000000004 28.0 12.5
  endloop
endfacet
facet normal 1.0 -0.0 -0.0
  outer loop
    vertex 24.5 28.0 14.499999999999998
    vertex 24.5 25.92 12.5
    vertex 24.5 28.0 12.5
  endloop
endfacet
endsolid BuddyBot2_LaserHolder
